<svg width="16" height="17" viewBox="0 0 16 17" fill="none" xmlns="http://www.w3.org/2000/svg">
  <path
    d="M15.7824 14.2676L12.6666 11.1518C12.5259 11.0111 12.3353 10.933 12.1353 10.933H11.6259C12.4884 9.82978 13.001 8.44218 13.001 6.9327C13.001 3.34181 10.0914 0.43222 6.50048 0.43222C2.90959 0.43222 0 3.34181 0 6.9327C0 10.5236 2.90959 13.4332 6.50048 13.4332C8.00996 13.4332 9.39756 12.9206 10.5008 12.0581V12.5675C10.5008 12.7675 10.5789 12.9581 10.7195 13.0988L13.8354 16.2146C14.1292 16.5084 14.6042 16.5084 14.8948 16.2146L15.7793 15.3302C16.0731 15.0364 16.0731 14.5614 15.7824 14.2676ZM6.50048 10.933C4.29094 10.933 2.50018 9.14536 2.50018 6.9327C2.50018 4.72316 4.28781 2.9324 6.50048 2.9324C8.71001 2.9324 10.5008 4.72003 10.5008 6.9327C10.5008 9.14223 8.71314 10.933 6.50048 10.933Z"
    fill="#484848" />
</svg>