<svg width="101" height="100" viewBox="0 0 101 100" fill="none" xmlns="http://www.w3.org/2000/svg">
  <rect x="47.0625" y="0.558838" width="10" height="29" rx="5" fill="#808080" />
  <rect width="10" height="29" rx="5" transform="matrix(1 0 0 -1 47.0625 99.8384)" fill="#808080" />
  <rect x="82.4668" y="11.1294" width="10" height="29" rx="5" transform="rotate(45 82.4668 11.1294)"
    fill="#808080" />
  <rect x="13.3486" y="18.2007" width="10" height="29" rx="5"
    transform="rotate(-45 13.3486 18.2007)" fill="#808080" />
  <rect x="20.4199" y="87.6968" width="10" height="29" rx="5"
    transform="rotate(-135 20.4199 87.6968)" fill="#808080" />
  <rect x="89.5381" y="80.6255" width="10" height="29" rx="5"
    transform="rotate(135 89.5381 80.6255)" fill="#808080" />
  <rect width="10" height="29" rx="5"
    transform="matrix(4.37114e-08 -1 -1 -4.37114e-08 101.005 54.1318)" fill="#808080" />
  <rect x="0.535156" y="54.1318" width="10" height="29" rx="5"
    transform="rotate(-90 0.535156 54.1318)" fill="white" />
  <rect x="0.535156" y="54.1318" width="10" height="29" rx="5"
    transform="rotate(-90 0.535156 54.1318)" fill="#009688" />
</svg>