<svg width="101" height="101" viewBox="0 0 101 101" fill="none" xmlns="http://www.w3.org/2000/svg">
  <rect x="47.0625" y="0.838379" width="10" height="29" rx="5" fill="#808080" />
  <rect width="10" height="29" rx="5" transform="matrix(1 0 0 -1 47.0625 100.118)" fill="#808080" />
  <rect x="82.4668" y="11.4089" width="10" height="29" rx="5" transform="rotate(45 82.4668 11.4089)"
    fill="#808080" />
  <rect x="13.3486" y="18.4802" width="10" height="29" rx="5"
    transform="rotate(-45 13.3486 18.4802)" fill="white" />
  <rect x="20.4199" y="87.9763" width="10" height="29" rx="5"
    transform="rotate(-135 20.4199 87.9763)" fill="#808080" />
  <rect x="89.5381" y="80.905" width="10" height="29" rx="5" transform="rotate(135 89.5381 80.905)"
    fill="#808080" />
  <rect width="10" height="29" rx="5"
    transform="matrix(4.37114e-08 -1 -1 -4.37114e-08 101.005 54.4114)" fill="#808080" />
  <rect x="0.535156" y="54.4114" width="10" height="29" rx="5"
    transform="rotate(-90 0.535156 54.4114)" fill="#808080" />
  <rect x="13.3486" y="18.48" width="10" height="29" rx="5" transform="rotate(-45 13.3486 18.48)"
    fill="#009688" />
</svg>