<svg width="101" height="101" viewBox="0 0 101 101" fill="none" xmlns="http://www.w3.org/2000/svg">
<rect x="46.916" y="0.838623" width="10" height="29" rx="5" fill="#808080"/>
<rect width="10" height="29" rx="5" transform="matrix(1 0 0 -1 46.916 100.118)" fill="#808080"/>
<rect x="82.3203" y="11.4092" width="10" height="29" rx="5" transform="rotate(45 82.3203 11.4092)" fill="#808080"/>
<rect x="13.2021" y="18.4805" width="10" height="29" rx="5" transform="rotate(-45 13.2021 18.4805)" fill="#808080"/>
<rect x="20.2734" y="87.9766" width="10" height="29" rx="5" transform="rotate(-135 20.2734 87.9766)" fill="#808080"/>
<rect x="89.3916" y="80.9053" width="10" height="29" rx="5" transform="rotate(135 89.3916 80.9053)" fill="white"/>
<rect width="10" height="29" rx="5" transform="matrix(4.37114e-08 -1 -1 -4.37114e-08 100.858 54.4116)" fill="#808080"/>
<rect x="0.388672" y="54.4116" width="10" height="29" rx="5" transform="rotate(-90 0.388672 54.4116)" fill="#808080"/>
<rect x="88.8291" y="81.0176" width="10" height="29" rx="5" transform="rotate(135 88.8291 81.0176)" fill="#009688"/>
</svg>
