<svg width="101" height="100" viewBox="0 0 101 100" fill="none" xmlns="http://www.w3.org/2000/svg">
<rect x="46.916" y="0.279541" width="10" height="29" rx="5" fill="#808080"/>
<rect width="10" height="29" rx="5" transform="matrix(1 0 0 -1 46.916 99.5591)" fill="#808080"/>
<rect x="82.3203" y="10.8501" width="10" height="29" rx="5" transform="rotate(45 82.3203 10.8501)" fill="white"/>
<rect x="13.2021" y="17.9214" width="10" height="29" rx="5" transform="rotate(-45 13.2021 17.9214)" fill="#808080"/>
<rect x="20.2734" y="87.4175" width="10" height="29" rx="5" transform="rotate(-135 20.2734 87.4175)" fill="#808080"/>
<rect x="89.3916" y="80.3462" width="10" height="29" rx="5" transform="rotate(135 89.3916 80.3462)" fill="#808080"/>
<rect width="10" height="29" rx="5" transform="matrix(4.37114e-08 -1 -1 -4.37114e-08 100.858 53.8525)" fill="#808080"/>
<rect x="0.388672" y="53.8525" width="10" height="29" rx="5" transform="rotate(-90 0.388672 53.8525)" fill="#808080"/>
<rect x="82.3203" y="10.8503" width="10" height="29" rx="5" transform="rotate(45 82.3203 10.8503)" fill="#009688"/>
</svg>
