<svg width="101" height="100" viewBox="0 0 101 100" fill="none" xmlns="http://www.w3.org/2000/svg">
<rect x="46.916" y="0.559082" width="10" height="29" rx="5" fill="#808080"/>
<rect width="10" height="29" rx="5" transform="matrix(1 0 0 -1 46.916 99.8386)" fill="#808080"/>
<rect x="82.3203" y="11.1296" width="10" height="29" rx="5" transform="rotate(45 82.3203 11.1296)" fill="#808080"/>
<rect x="13.2021" y="18.2009" width="10" height="29" rx="5" transform="rotate(-45 13.2021 18.2009)" fill="#808080"/>
<rect x="20.2734" y="87.697" width="10" height="29" rx="5" transform="rotate(-135 20.2734 87.697)" fill="#808080"/>
<rect x="89.3916" y="80.6257" width="10" height="29" rx="5" transform="rotate(135 89.3916 80.6257)" fill="#808080"/>
<rect width="10" height="29" rx="5" transform="matrix(4.37114e-08 -1 -1 -4.37114e-08 100.858 54.1321)" fill="white"/>
<rect x="0.388672" y="54.1321" width="10" height="29" rx="5" transform="rotate(-90 0.388672 54.1321)" fill="#808080"/>
<rect x="100.858" y="44.1321" width="10" height="29" rx="5" transform="rotate(90 100.858 44.1321)" fill="#009688"/>
</svg>
