<svg width="101" height="100" viewBox="0 0 101 100" fill="none" xmlns="http://www.w3.org/2000/svg">
<rect x="47.0625" width="10" height="29" rx="5" fill="#808080"/>
<rect width="10" height="29" rx="5" transform="matrix(1 0 0 -1 47.0625 99.2795)" fill="white"/>
<rect x="82.4668" y="10.5706" width="10" height="29" rx="5" transform="rotate(45 82.4668 10.5706)" fill="#808080"/>
<rect x="13.3486" y="17.6418" width="10" height="29" rx="5" transform="rotate(-45 13.3486 17.6418)" fill="#808080"/>
<rect x="20.4199" y="87.1379" width="10" height="29" rx="5" transform="rotate(-135 20.4199 87.1379)" fill="#808080"/>
<rect x="89.5381" y="80.0667" width="10" height="29" rx="5" transform="rotate(135 89.5381 80.0667)" fill="#808080"/>
<rect width="10" height="29" rx="5" transform="matrix(4.37114e-08 -1 -1 -4.37114e-08 101.005 53.573)" fill="#808080"/>
<rect x="0.535156" y="53.573" width="10" height="29" rx="5" transform="rotate(-90 0.535156 53.573)" fill="#808080"/>
<rect x="57.0625" y="99.1377" width="10" height="29" rx="5" transform="rotate(-180 57.0625 99.1377)" fill="#009688"/>
</svg>
