<svg width="16" height="17" viewBox="0 0 16 17" fill="none" xmlns="http://www.w3.org/2000/svg">
<g clip-path="url(#clip0_1944_1405)">
<path d="M14.5 1.4336H10.75L10.4563 0.849224C10.394 0.724291 10.2982 0.6192 10.1795 0.545774C10.0608 0.472347 9.92395 0.433499 9.78438 0.433599H6.2125C6.07324 0.433064 5.93665 0.471767 5.81838 0.545275C5.7001 0.618783 5.60492 0.724123 5.54375 0.849224L5.25 1.4336H1.5C1.36739 1.4336 1.24021 1.48628 1.14645 1.58005C1.05268 1.67381 1 1.80099 1 1.9336V2.9336C1 3.06621 1.05268 3.19338 1.14645 3.28715C1.24021 3.38092 1.36739 3.4336 1.5 3.4336H14.5C14.6326 3.4336 14.7598 3.38092 14.8536 3.28715C14.9473 3.19338 15 3.06621 15 2.9336V1.9336C15 1.80099 14.9473 1.67381 14.8536 1.58005C14.7598 1.48628 14.6326 1.4336 14.5 1.4336ZM2.6625 15.0273C2.68635 15.4082 2.85443 15.7656 3.13252 16.0268C3.41061 16.2881 3.77781 16.4336 4.15937 16.4336H11.8406C12.2222 16.4336 12.5894 16.2881 12.8675 16.0268C13.1456 15.7656 13.3137 15.4082 13.3375 15.0273L14 4.4336H2L2.6625 15.0273Z" fill="black"/>
</g>
<defs>
<clipPath id="clip0_1944_1405">
<rect width="16" height="16" fill="white" transform="translate(0 0.433594)"/>
</clipPath>
</defs>
</svg>
